<svg width="0" height="0">
    <symbol id="share" viewBox="0 0 15 15">
        <title>Share</title>
        <defs>
        <path fill="#000"
        d="M15 6.495L8.766.014V3.88H7.441C3.33 3.88 0 7.039 0 10.936v2.049l.589-.612C2.59 10.294 5.422 9.11 8.39 9.11h.375v3.867L15 6.495z" />
        </defs>
    </symbol>
    <symbol id="facebook" viewBox="0 0 20 20">
        <title>Facebook</title>
        <path fill="#000" d="M18.896 0H1.104C.494 0 0 .494 0 1.104v17.793C0 19.506.494 20 1.104 20h9.58v-7.745H8.076V9.237h2.606V7.01c0-2.583 1.578-3.99 3.883-3.99 1.104 0 2.052.082 2.329.119v2.7h-1.598c-1.254 0-1.496.597-1.496 1.47v1.928h2.989l-.39 3.018h-2.6V20h5.098c.608 0 1.102-.494 1.102-1.104V1.104C20 .494 19.506 0 18.896 0z"/>
    </symbol>
    <!-- next symbol example -->
    <!-- 
        id="xxx" used to call it in a component
        check if all <path /> have a fill attr
        if not, check if it's class css (wrong implementation)
        svg file needs optimization
        then, don't hesitate to copy/paste the svg code into 
        https://jakearchibald.github.io/svgomg/ to optimize the code
        then call your file in your component as follow :
        <svg class="xxx"><use xlink:href="assets/svg-sprite.svg#ID"></use></svg>
        -->
    <!-- <symbol id="empty-screen" viewBox="0 0 520 520">
        paste the svg inside and change viewBox above according to svg viewBox
    </symbol> -->
</svg>
